# xmcd
#
# Track frame offsets:
#	150
#	14210
#	32122
#	49712
#	64887
#	84460
#	98335
#	116332
#	134155
#	152682
#	169962
#	184685
#
# Disc length: 2622 seconds
#
# Revision: 0
# Processed by: cddbd v1.4PL0 Copyright (c) Steve Scherf et al.
# Submitted via: dBpowerAMP V4.0
#
DISCID=9f0a3c0c
DTITLE=Lena Philipsson - Hennes Bästa
DYEAR=1900
DGENRE=Pop
TTITLE0=Kärleken Är evig
TTITLE1=Tänd ett ljus
TTITLE2=Stjärnorna
TTITLE3=Dansa i neon
TTITLE4=Månsken i augusti
TTITLE5=Om igen
TTITLE6=Aldrig mer
TTITLE7=Det går väl an
TTITLE8=Jag känner
TTITLE9=Kärleken kommer med sommar
TTITLE10=Det är över nu
TTITLE11=Vila hos mig
EXTD=
EXTT0=
EXTT1=
EXTT2=
EXTT3=
EXTT4=
EXTT5=
EXTT6=
EXTT7=
EXTT8=
EXTT9=
EXTT10=
EXTT11=
PLAYORDER=
